<?xml version="1.0" standalone="no"?>
<!DOCTYPE svg PUBLIC "-//W3C//DTD SVG 20010904//EN"
 "http://www.w3.org/TR/2001/REC-SVG-20010904/DTD/svg10.dtd">
<svg version="1.0" xmlns="http://www.w3.org/2000/svg"
 width="19.000000pt" height="17.000000pt" viewBox="0 0 19.000000 17.000000"
 preserveAspectRatio="xMidYMid meet">
<metadata>
Created by potrace 1.14, written by Peter Selinger 2001-2017
</metadata>
<g transform="translate(0.000000,17.000000) scale(0.100000,-0.100000)"
fill="#000000" stroke="none">
<path d="M39 141 c-18 -19 -29 -40 -29 -58 0 -15 -3 -38 -6 -50 -4 -14 -2 -23
5 -23 5 0 8 7 5 15 -8 20 3 19 33 -5 31 -24 73 -27 73 -5 0 8 5 15 11 15 5 0
7 -5 3 -11 -4 -8 0 -8 15 0 24 13 29 33 6 25 -10 -4 -15 0 -15 15 0 23 25 29
33 9 3 -7 5 1 5 17 0 17 -2 24 -5 18 -8 -20 -30 -15 -36 8 -5 17 -2 20 13 16
22 -6 17 18 -6 27 -9 3 -12 1 -9 -4 3 -6 1 -10 -4 -10 -6 0 -11 7 -11 15 0 26
-49 17 -81 -14z"/>
</g>
</svg>
